<mxfile host="app.diagrams.net" modified="2023-03-27T12:19:50.203Z" agent="Mozilla/5.0 (Windows NT 10.0; Win64; x64; rv:109.0) Gecko/20100101 Firefox/111.0" etag="ivHbqI1lp70qnAJgJJcc" version="21.1.1" type="device">
  <diagram name="Seite-1" id="kQz5wrokmIZP_kxzHKaK">
    <mxGraphModel dx="1430" dy="788" grid="1" gridSize="10" guides="1" tooltips="1" connect="1" arrows="1" fold="1" page="1" pageScale="1" pageWidth="827" pageHeight="1169" math="0" shadow="0">
      <root>
        <mxCell id="0" />
        <mxCell id="1" parent="0" />
        <mxCell id="Ot1c8mI25hrCOPRnf9G1-1" value="Added" style="ellipse;whiteSpace=wrap;html=1;fillColor=#d5e8d4;strokeColor=#82b366;" vertex="1" parent="1">
          <mxGeometry x="230" y="80" width="70" height="50" as="geometry" />
        </mxCell>
        <mxCell id="Ot1c8mI25hrCOPRnf9G1-2" value="Modified" style="ellipse;whiteSpace=wrap;html=1;fillColor=#d5e8d4;strokeColor=#82b366;" vertex="1" parent="1">
          <mxGeometry x="230" y="190" width="70" height="50" as="geometry" />
        </mxCell>
        <mxCell id="Ot1c8mI25hrCOPRnf9G1-3" value="Removed" style="ellipse;whiteSpace=wrap;html=1;fillColor=#d5e8d4;strokeColor=#82b366;" vertex="1" parent="1">
          <mxGeometry x="230" y="300" width="70" height="50" as="geometry" />
        </mxCell>
        <mxCell id="Ot1c8mI25hrCOPRnf9G1-5" value="untracked" style="rounded=0;whiteSpace=wrap;html=1;fillColor=#f5f5f5;fontColor=#333333;strokeColor=#666666;" vertex="1" parent="1">
          <mxGeometry x="420" y="185" width="120" height="60" as="geometry" />
        </mxCell>
        <mxCell id="Ot1c8mI25hrCOPRnf9G1-6" value="error" style="rounded=0;whiteSpace=wrap;html=1;fillColor=#f8cecc;strokeColor=#b85450;" vertex="1" parent="1">
          <mxGeometry x="10" y="185" width="120" height="60" as="geometry" />
        </mxCell>
        <mxCell id="Ot1c8mI25hrCOPRnf9G1-9" value="" style="endArrow=classic;html=1;entryX=0.5;entryY=0;entryDx=0;entryDy=0;curved=1;exitX=1;exitY=0.5;exitDx=0;exitDy=0;" edge="1" parent="1" source="Ot1c8mI25hrCOPRnf9G1-1" target="Ot1c8mI25hrCOPRnf9G1-5">
          <mxGeometry relative="1" as="geometry">
            <mxPoint x="420" y="290" as="sourcePoint" />
            <mxPoint x="520" y="290" as="targetPoint" />
            <Array as="points">
              <mxPoint x="480" y="130" />
            </Array>
          </mxGeometry>
        </mxCell>
        <mxCell id="Ot1c8mI25hrCOPRnf9G1-10" value="remove" style="edgeLabel;resizable=0;html=1;align=center;verticalAlign=middle;" connectable="0" vertex="1" parent="Ot1c8mI25hrCOPRnf9G1-9">
          <mxGeometry relative="1" as="geometry">
            <mxPoint x="-27" y="-1" as="offset" />
          </mxGeometry>
        </mxCell>
        <mxCell id="Ot1c8mI25hrCOPRnf9G1-12" value="" style="endArrow=classic;html=1;exitX=1;exitY=0;exitDx=0;exitDy=0;entryX=0.5;entryY=0;entryDx=0;entryDy=0;curved=1;" edge="1" parent="1" source="Ot1c8mI25hrCOPRnf9G1-1" target="Ot1c8mI25hrCOPRnf9G1-1">
          <mxGeometry relative="1" as="geometry">
            <mxPoint x="420" y="290" as="sourcePoint" />
            <mxPoint x="370" y="20" as="targetPoint" />
            <Array as="points">
              <mxPoint x="330" y="70" />
              <mxPoint x="320" y="30" />
              <mxPoint x="270" y="50" />
            </Array>
          </mxGeometry>
        </mxCell>
        <mxCell id="Ot1c8mI25hrCOPRnf9G1-13" value="modify" style="edgeLabel;resizable=0;html=1;align=center;verticalAlign=middle;" connectable="0" vertex="1" parent="Ot1c8mI25hrCOPRnf9G1-12">
          <mxGeometry relative="1" as="geometry">
            <mxPoint x="3" y="18" as="offset" />
          </mxGeometry>
        </mxCell>
        <mxCell id="Ot1c8mI25hrCOPRnf9G1-14" value="" style="endArrow=classic;html=1;exitX=0;exitY=0.5;exitDx=0;exitDy=0;entryX=0.5;entryY=0;entryDx=0;entryDy=0;curved=1;" edge="1" parent="1" source="Ot1c8mI25hrCOPRnf9G1-1" target="Ot1c8mI25hrCOPRnf9G1-6">
          <mxGeometry relative="1" as="geometry">
            <mxPoint x="380" y="290" as="sourcePoint" />
            <mxPoint x="480" y="290" as="targetPoint" />
            <Array as="points">
              <mxPoint x="80" y="120" />
            </Array>
          </mxGeometry>
        </mxCell>
        <mxCell id="Ot1c8mI25hrCOPRnf9G1-15" value="add" style="edgeLabel;resizable=0;html=1;align=center;verticalAlign=middle;" connectable="0" vertex="1" parent="Ot1c8mI25hrCOPRnf9G1-14">
          <mxGeometry relative="1" as="geometry">
            <mxPoint x="18" y="4" as="offset" />
          </mxGeometry>
        </mxCell>
        <mxCell id="Ot1c8mI25hrCOPRnf9G1-16" value="" style="endArrow=classic;html=1;exitX=1;exitY=0.5;exitDx=0;exitDy=0;curved=1;entryX=0.5;entryY=0;entryDx=0;entryDy=0;" edge="1" parent="1" source="Ot1c8mI25hrCOPRnf9G1-2" target="Ot1c8mI25hrCOPRnf9G1-2">
          <mxGeometry relative="1" as="geometry">
            <mxPoint x="420" y="290" as="sourcePoint" />
            <mxPoint x="280" y="150" as="targetPoint" />
            <Array as="points">
              <mxPoint x="320" y="180" />
              <mxPoint x="310" y="160" />
              <mxPoint x="280" y="150" />
            </Array>
          </mxGeometry>
        </mxCell>
        <mxCell id="Ot1c8mI25hrCOPRnf9G1-17" value="&lt;div&gt;modify /&lt;/div&gt;&lt;div&gt;new value&lt;br&gt;&lt;/div&gt;" style="edgeLabel;resizable=0;html=1;align=center;verticalAlign=middle;" connectable="0" vertex="1" parent="Ot1c8mI25hrCOPRnf9G1-16">
          <mxGeometry relative="1" as="geometry">
            <mxPoint x="5" y="12" as="offset" />
          </mxGeometry>
        </mxCell>
        <mxCell id="Ot1c8mI25hrCOPRnf9G1-18" value="" style="endArrow=classic;html=1;rounded=0;exitX=1;exitY=0.5;exitDx=0;exitDy=0;entryX=0;entryY=0.5;entryDx=0;entryDy=0;" edge="1" parent="1" source="Ot1c8mI25hrCOPRnf9G1-2" target="Ot1c8mI25hrCOPRnf9G1-5">
          <mxGeometry relative="1" as="geometry">
            <mxPoint x="420" y="290" as="sourcePoint" />
            <mxPoint x="520" y="290" as="targetPoint" />
          </mxGeometry>
        </mxCell>
        <mxCell id="Ot1c8mI25hrCOPRnf9G1-19" value="modify / &lt;br&gt;old value" style="edgeLabel;resizable=0;html=1;align=center;verticalAlign=middle;" connectable="0" vertex="1" parent="Ot1c8mI25hrCOPRnf9G1-18">
          <mxGeometry relative="1" as="geometry" />
        </mxCell>
        <mxCell id="Ot1c8mI25hrCOPRnf9G1-20" value="" style="endArrow=classic;html=1;exitX=1;exitY=0.5;exitDx=0;exitDy=0;entryX=0.5;entryY=1;entryDx=0;entryDy=0;curved=1;" edge="1" parent="1" source="Ot1c8mI25hrCOPRnf9G1-3" target="Ot1c8mI25hrCOPRnf9G1-5">
          <mxGeometry relative="1" as="geometry">
            <mxPoint x="420" y="290" as="sourcePoint" />
            <mxPoint x="520" y="290" as="targetPoint" />
            <Array as="points">
              <mxPoint x="480" y="330" />
            </Array>
          </mxGeometry>
        </mxCell>
        <mxCell id="Ot1c8mI25hrCOPRnf9G1-21" value="add / &lt;br&gt;old value" style="edgeLabel;resizable=0;html=1;align=center;verticalAlign=middle;" connectable="0" vertex="1" parent="Ot1c8mI25hrCOPRnf9G1-20">
          <mxGeometry relative="1" as="geometry">
            <mxPoint x="-32" y="-9" as="offset" />
          </mxGeometry>
        </mxCell>
        <mxCell id="Ot1c8mI25hrCOPRnf9G1-22" value="" style="endArrow=classic;html=1;exitX=0;exitY=0;exitDx=0;exitDy=0;entryX=0;entryY=1;entryDx=0;entryDy=0;curved=1;" edge="1" parent="1" source="Ot1c8mI25hrCOPRnf9G1-3" target="Ot1c8mI25hrCOPRnf9G1-2">
          <mxGeometry relative="1" as="geometry">
            <mxPoint x="260" y="279.66" as="sourcePoint" />
            <mxPoint x="360" y="279.66" as="targetPoint" />
            <Array as="points">
              <mxPoint x="220" y="270" />
            </Array>
          </mxGeometry>
        </mxCell>
        <mxCell id="Ot1c8mI25hrCOPRnf9G1-23" value="add /&lt;br&gt;new value" style="edgeLabel;resizable=0;html=1;align=center;verticalAlign=middle;" connectable="0" vertex="1" parent="Ot1c8mI25hrCOPRnf9G1-22">
          <mxGeometry relative="1" as="geometry">
            <mxPoint x="10" as="offset" />
          </mxGeometry>
        </mxCell>
        <mxCell id="Ot1c8mI25hrCOPRnf9G1-24" value="" style="endArrow=classic;html=1;exitX=1;exitY=1;exitDx=0;exitDy=0;curved=1;entryX=1;entryY=0;entryDx=0;entryDy=0;" edge="1" parent="1" source="Ot1c8mI25hrCOPRnf9G1-2" target="Ot1c8mI25hrCOPRnf9G1-3">
          <mxGeometry relative="1" as="geometry">
            <mxPoint x="420" y="290" as="sourcePoint" />
            <mxPoint x="520" y="290" as="targetPoint" />
            <Array as="points">
              <mxPoint x="320" y="270" />
            </Array>
          </mxGeometry>
        </mxCell>
        <mxCell id="Ot1c8mI25hrCOPRnf9G1-25" value="remove" style="edgeLabel;resizable=0;html=1;align=center;verticalAlign=middle;" connectable="0" vertex="1" parent="Ot1c8mI25hrCOPRnf9G1-24">
          <mxGeometry relative="1" as="geometry">
            <mxPoint x="-10" as="offset" />
          </mxGeometry>
        </mxCell>
        <mxCell id="Ot1c8mI25hrCOPRnf9G1-26" value="" style="endArrow=classic;html=1;exitX=0;exitY=0.5;exitDx=0;exitDy=0;entryX=0.5;entryY=1;entryDx=0;entryDy=0;curved=1;" edge="1" parent="1" source="Ot1c8mI25hrCOPRnf9G1-3" target="Ot1c8mI25hrCOPRnf9G1-6">
          <mxGeometry relative="1" as="geometry">
            <mxPoint x="380" y="290" as="sourcePoint" />
            <mxPoint x="480" y="290" as="targetPoint" />
            <Array as="points">
              <mxPoint x="90" y="320" />
            </Array>
          </mxGeometry>
        </mxCell>
        <mxCell id="Ot1c8mI25hrCOPRnf9G1-27" value="remove" style="edgeLabel;resizable=0;html=1;align=center;verticalAlign=middle;" connectable="0" vertex="1" parent="Ot1c8mI25hrCOPRnf9G1-26">
          <mxGeometry relative="1" as="geometry">
            <mxPoint x="-12" y="-25" as="offset" />
          </mxGeometry>
        </mxCell>
        <mxCell id="Ot1c8mI25hrCOPRnf9G1-29" value="" style="endArrow=classic;html=1;rounded=0;exitX=0;exitY=0.5;exitDx=0;exitDy=0;entryX=1;entryY=0.5;entryDx=0;entryDy=0;" edge="1" parent="1" source="Ot1c8mI25hrCOPRnf9G1-2" target="Ot1c8mI25hrCOPRnf9G1-6">
          <mxGeometry relative="1" as="geometry">
            <mxPoint x="380" y="290" as="sourcePoint" />
            <mxPoint x="480" y="290" as="targetPoint" />
          </mxGeometry>
        </mxCell>
        <mxCell id="Ot1c8mI25hrCOPRnf9G1-30" value="add" style="edgeLabel;resizable=0;html=1;align=center;verticalAlign=middle;" connectable="0" vertex="1" parent="Ot1c8mI25hrCOPRnf9G1-29">
          <mxGeometry relative="1" as="geometry" />
        </mxCell>
      </root>
    </mxGraphModel>
  </diagram>
</mxfile>
